<svg width="26" height="17" viewBox="0 0 26 17" fill="none" xmlns="http://www.w3.org/2000/svg">
<path d="M13.1629 16.9878C12.8647 16.9878 12.5754 16.9255 12.2951 16.801C12.0148 16.6764 11.7822 16.5103 11.5974 16.3027L1.30984 4.84249C0.899828 4.38574 0.694824 3.80442 0.694824 3.09854C0.694824 2.39266 0.899828 1.81135 1.30984 1.3546C1.71985 0.897852 2.24168 0.669479 2.87533 0.669479C3.50898 0.669479 4.03082 0.897852 4.44083 1.3546L13.1629 11.0709L21.8849 1.3546C22.2949 0.897852 22.8167 0.669479 23.4504 0.669479C24.084 0.669479 24.6059 0.897852 25.0159 1.3546C25.4259 1.81135 25.6309 2.39266 25.6309 3.09854C25.6309 3.80442 25.4259 4.38574 25.0159 4.84249L14.7284 16.3027C14.5047 16.5518 14.2624 16.7287 14.0015 16.8333C13.7406 16.938 13.461 16.9895 13.1629 16.9878Z" fill="#6632BB"/>
</svg>
